<?xml version="1.0" encoding="UTF-8" standalone="no"?>
<!-- Created with Inkscape (http://www.inkscape.org/) -->

<svg
   width="87.757378mm"
   height="22.819929mm"
   viewBox="0 0 87.757378 22.819929"
   version="1.1"
   id="svg29134"
   inkscape:version="1.1.1 (3bf5ae0d25, 2021-09-20)"
   sodipodi:docname="Logo Omnes Éducation.svg"
   xmlns:inkscape="http://www.inkscape.org/namespaces/inkscape"
   xmlns:sodipodi="http://sodipodi.sourceforge.net/DTD/sodipodi-0.dtd"
   xmlns:xlink="http://www.w3.org/1999/xlink"
   xmlns="http://www.w3.org/2000/svg"
   xmlns:svg="http://www.w3.org/2000/svg">
  <sodipodi:namedview
     id="namedview29136"
     pagecolor="#ffffff"
     bordercolor="#111111"
     borderopacity="1"
     inkscape:pageshadow="0"
     inkscape:pageopacity="0"
     inkscape:pagecheckerboard="1"
     inkscape:document-units="mm"
     showgrid="false"
     fit-margin-top="0"
     fit-margin-left="0"
     fit-margin-right="0"
     fit-margin-bottom="0"
     inkscape:zoom="0.73406285"
     inkscape:cx="-143.03952"
     inkscape:cy="270.41281"
     inkscape:window-width="1920"
     inkscape:window-height="1013"
     inkscape:window-x="-9"
     inkscape:window-y="-9"
     inkscape:window-maximized="1"
     inkscape:current-layer="layer1" />
  <defs
     id="defs29131">
    <clipPath
       clipPathUnits="userSpaceOnUse"
       id="clipPath868">
      <path
         d="M 0,0 H 595.276 V 841.89 H 0 Z"
         id="path866" />
    </clipPath>
    <clipPath
       clipPathUnits="userSpaceOnUse"
       id="clipPath892">
      <path
         d="M 0,0 H 595.276 V 841.89 H 0 Z"
         id="path890" />
    </clipPath>
    <clipPath
       clipPathUnits="userSpaceOnUse"
       id="clipPath908">
      <path
         d="M 0,0 H 595.276 V 841.89 H 0 Z"
         id="path906" />
    </clipPath>
    <clipPath
       clipPathUnits="userSpaceOnUse"
       id="clipPath938">
      <path
         d="M 0,0 H 595.276 V 841.89 H 0 Z"
         id="path936" />
    </clipPath>
    <linearGradient
       inkscape:collect="always"
       xlink:href="#linearGradient1759"
       id="linearGradient1862"
       gradientUnits="userSpaceOnUse"
       x1="1.3546101"
       y1="14.815732"
       x2="56.897667"
       y2="14.815732"
       gradientTransform="matrix(0.35277777,0,0,-0.35277777,109.8972,121.96685)" />
    <linearGradient
       inkscape:collect="always"
       id="linearGradient1759">
      <stop
         style="stop-color:#615db2;stop-opacity:1"
         offset="0"
         id="stop1755" />
      <stop
         style="stop-color:#abb0f2;stop-opacity:0.99607843"
         offset="0.67296803"
         id="stop2296" />
      <stop
         style="stop-color:#6062b1;stop-opacity:0.99607843"
         offset="1"
         id="stop1757" />
    </linearGradient>
    <linearGradient
       inkscape:collect="always"
       xlink:href="#linearGradient1759"
       id="linearGradient29047"
       gradientUnits="userSpaceOnUse"
       gradientTransform="matrix(-0.35277777,0,0,0.35277777,132.69772,123.87096)"
       x1="1.3546101"
       y1="14.815732"
       x2="56.897667"
       y2="14.815732" />
  </defs>
  <g
     inkscape:label="Calque 1"
     inkscape:groupmode="layer"
     id="layer1"
     transform="translate(-142.82762,-77.257512)">
    <g
       id="g1710"
       style="fill:#000000"
       transform="translate(22.347089,-34.251426)">
      <g
         id="g862"
         transform="matrix(0.35277777,0,0,-0.35277777,107.78054,393.00904)"
         style="fill:#000000">
        <g
           id="g864"
           clip-path="url(#clipPath868)"
           style="fill:#000000">
          <g
             id="g870"
             transform="translate(106.1289,780.4033)"
             style="fill:#000000">
            <path
               d="m 0,0 c -0.027,2.386 0.45,4.752 1.401,6.941 0.887,2.041 2.174,3.882 3.786,5.415 1.641,1.533 3.566,2.729 5.667,3.521 4.478,1.672 9.407,1.672 13.884,0 2.093,-0.8 4.013,-1.995 5.654,-3.521 1.609,-1.536 2.897,-3.377 3.787,-5.415 1.87,-4.438 1.87,-9.444 0,-13.883 -0.89,-2.038 -2.178,-3.879 -3.787,-5.414 -1.638,-1.53 -3.559,-2.727 -5.654,-3.521 -2.211,-0.852 -4.561,-1.279 -6.929,-1.263 -2.372,-0.01 -4.726,0.417 -6.942,1.263 -2.097,0.799 -4.021,1.995 -5.667,3.521 -1.613,1.531 -2.901,3.373 -3.786,5.414 C 0.458,-4.754 -0.024,-2.388 0,0 m 5.68,0 c -0.019,-1.583 0.308,-3.151 0.959,-4.594 0.598,-1.364 1.455,-2.599 2.524,-3.635 1.116,-1.041 2.423,-1.855 3.85,-2.398 3.064,-1.145 6.439,-1.145 9.504,0 1.426,0.543 2.733,1.357 3.849,2.398 3.43,3.336 4.436,8.448 2.524,12.836 -0.592,1.367 -1.45,2.602 -2.524,3.635 -1.116,1.04 -2.423,1.855 -3.849,2.398 -3.065,1.144 -6.44,1.144 -9.504,0 C 11.589,10.092 10.283,9.278 9.163,8.242 8.091,7.207 7.234,5.972 6.639,4.607 5.993,3.157 5.666,1.586 5.68,0"
               style="fill:#000000;fill-opacity:1;fill-rule:nonzero;stroke:none"
               id="path872" />
          </g>
        </g>
      </g>
      <g
         id="g874"
         transform="matrix(0.35277777,0,0,-0.35277777,172.89732,111.80949)"
         style="fill:#000000">
        <path
           d="m 0,0 v -33.119 h -5.743 v 15.26 11.94 l -11.233,-27.25 h -4.922 l -11.485,27.25 v -27.25 h -5.68 v 33.156 h 9.391 L -19.575,-24.435 -9.479,0 Z"
           style="fill:#000000;fill-opacity:1;fill-rule:nonzero;stroke:none"
           id="path876" />
      </g>
      <g
         id="g878"
         transform="matrix(0.35277777,0,0,-0.35277777,183.68583,119.69929)"
         style="fill:#000000">
        <path
           d="M 0,0 V 22.365 H 5.945 V -10.754 H 0.984 l -21.178,26.152 v -26.152 h -5.844 v 33.106 h 7.851 z"
           style="fill:#000000;fill-opacity:1;fill-rule:nonzero;stroke:none"
           id="path880" />
      </g>
      <g
         id="g882"
         transform="matrix(0.35277777,0,0,-0.35277777,196.54895,113.81316)"
         style="fill:#000000">
        <path
           d="m 0,0 h -22.327 l 1.982,-2.334 V -7.75 h 17.569 v -5.691 h -17.569 v -8.356 H 0.959 v -5.692 H -26.038 V 5.667 H 0 Z"
           style="fill:#000000;fill-opacity:1;fill-rule:nonzero;stroke:none"
           id="path884" />
      </g>
      <g
         id="g886"
         transform="matrix(0.35277777,0,0,-0.35277777,107.78054,393.00904)"
         style="fill:#000000">
        <g
           id="g888"
           clip-path="url(#clipPath892)"
           style="fill:#000000">
          <g
             id="g894"
             transform="translate(280.3535,788.3799)"
             style="fill:#000000">
            <path
               d="m 0,0 c -0.702,0.635 -1.472,1.19 -2.297,1.653 -0.807,0.441 -1.652,0.808 -2.524,1.098 -0.801,0.273 -1.625,0.471 -2.462,0.594 -0.735,0.11 -1.477,0.168 -2.221,0.176 -0.802,-0.003 -1.602,-0.054 -2.398,-0.151 -0.827,-0.102 -1.64,-0.298 -2.423,-0.581 -0.719,-0.271 -1.367,-0.703 -1.894,-1.262 -0.518,-0.562 -0.79,-1.307 -0.757,-2.07 0.017,-0.556 0.174,-1.098 0.455,-1.578 0.447,-0.657 1.137,-1.111 1.918,-1.261 0.745,-0.202 1.603,-0.392 2.587,-0.581 l 3.055,-0.53 3.029,-0.505 c 0.984,-0.164 1.83,-0.328 2.524,-0.505 1.327,-0.279 2.604,-0.761 3.786,-1.426 0.923,-0.533 1.736,-1.236 2.398,-2.07 0.585,-0.749 1.014,-1.607 1.263,-2.524 0.247,-0.978 0.37,-1.983 0.366,-2.992 0.036,-1.614 -0.309,-3.214 -1.01,-4.67 -0.639,-1.292 -1.573,-2.417 -2.727,-3.281 -1.228,-0.897 -2.616,-1.552 -4.089,-1.931 -1.616,-0.437 -3.285,-0.654 -4.959,-0.644 -2.084,-0.028 -4.164,0.188 -6.198,0.644 -1.601,0.351 -3.152,0.897 -4.619,1.628 -1.167,0.561 -2.247,1.288 -3.206,2.158 -0.737,0.657 -1.39,1.403 -1.944,2.221 l 4.759,3.434 c 0.564,-0.795 1.27,-1.48 2.082,-2.02 0.869,-0.599 1.8,-1.103 2.777,-1.502 1.002,-0.406 2.042,-0.714 3.104,-0.921 0.986,-0.194 1.987,-0.296 2.992,-0.303 0.972,-0.008 1.941,0.094 2.89,0.303 0.811,0.174 1.581,0.5 2.272,0.959 0.62,0.398 1.135,0.939 1.502,1.578 0.386,0.675 0.577,1.444 0.555,2.221 0.046,0.771 -0.177,1.534 -0.631,2.159 -0.464,0.572 -1.075,1.007 -1.767,1.261 -0.849,0.323 -1.735,0.539 -2.638,0.644 -1.009,0.139 -2.095,0.265 -3.269,0.391 -1.174,0.126 -2.398,0.304 -3.66,0.505 -1.283,0.214 -2.548,0.523 -3.786,0.922 -1.719,0.562 -3.229,1.631 -4.329,3.067 -0.946,1.342 -1.437,2.952 -1.401,4.594 -0.142,3.133 1.429,6.096 4.102,7.737 1.293,0.795 2.715,1.359 4.203,1.666 1.567,0.339 3.167,0.508 4.771,0.504 1.505,0.005 3.007,-0.146 4.48,-0.454 C -3.981,8.058 -2.655,7.636 -1.376,7.093 -0.235,6.642 0.853,6.066 1.868,5.376 2.719,4.815 3.509,4.168 4.228,3.445 Z"
               style="fill:#000000;fill-opacity:1;fill-rule:nonzero;stroke:none"
               id="path896" />
          </g>
        </g>
      </g>
    </g>
    <g
       id="g1658"
       style="fill:#000000"
       transform="translate(22.347089,-34.251426)">
      <g
         id="g898"
         transform="matrix(0.35277777,0,0,-0.35277777,150.0472,128.76797)"
         style="fill:#000000">
        <path
           d="m 0,0 h -8.97 l 0.795,-0.903 v -2.098 h 7.061 v -2.184 h -7.061 v -3.24 h 8.561 v -2.2 H -10.46 V 2.201 H 0 Z"
           style="fill:#000000;fill-opacity:1;fill-rule:nonzero;stroke:none"
           id="path900" />
      </g>
      <g
         id="g902"
         transform="matrix(0.35277777,0,0,-0.35277777,107.78054,393.00904)"
         style="fill:#000000">
        <g
           id="g904"
           clip-path="url(#clipPath908)"
           style="fill:#000000">
          <g
             id="g910"
             transform="translate(135.1724,751.2305)"
             style="fill:#000000">
            <path
               d="m 0,0 c 0.886,0 1.723,-0.171 2.507,-0.512 0.785,-0.341 1.467,-0.805 2.046,-1.389 0.58,-0.587 1.041,-1.266 1.382,-2.038 0.341,-0.775 0.512,-1.593 0.512,-2.457 0,-0.887 -0.171,-1.72 -0.512,-2.498 C 5.594,-9.673 5.133,-10.355 4.553,-10.941 3.974,-11.527 3.292,-11.988 2.507,-12.323 1.723,-12.658 0.886,-12.826 0,-12.826 H -6.379 V 0 Z m 4.127,-6.414 c 0,0.569 -0.107,1.107 -0.324,1.613 -0.216,0.506 -0.511,0.949 -0.886,1.33 -0.375,0.381 -0.814,0.682 -1.313,0.904 -0.501,0.222 -1.041,0.332 -1.622,0.332 l -4.076,-0.016 v -8.324 h 4.076 c 0.581,0 1.121,0.112 1.622,0.333 0.499,0.222 0.938,0.52 1.313,0.895 0.375,0.376 0.67,0.817 0.886,1.323 0.217,0.505 0.324,1.043 0.324,1.61"
               style="fill:#000000;fill-opacity:1;fill-rule:nonzero;stroke:none"
               id="path912" />
          </g>
          <g
             id="g914"
             transform="translate(152.209,743.9814)"
             style="fill:#000000">
            <path
               d="m 0,0 c 0,-0.67 0.12,-1.236 0.359,-1.697 0.238,-0.46 0.551,-0.833 0.938,-1.116 0.386,-0.285 0.824,-0.49 1.313,-0.615 0.489,-0.125 0.983,-0.188 1.484,-0.188 0.488,0 0.977,0.063 1.467,0.188 0.489,0.125 0.926,0.33 1.313,0.615 0.386,0.283 0.699,0.656 0.938,1.116 C 8.051,-1.236 8.17,-0.67 8.17,0 v 7.249 h 2.32 V -0.357 C 10.49,-1.233 10.316,-2.01 9.969,-2.686 9.623,-3.362 9.154,-3.931 8.562,-4.392 7.971,-4.852 7.292,-5.204 6.524,-5.449 5.757,-5.693 4.947,-5.815 4.094,-5.815 c -0.865,0 -1.686,0.122 -2.465,0.366 -0.778,0.245 -1.461,0.597 -2.046,1.057 -0.586,0.461 -1.052,1.03 -1.399,1.706 -0.347,0.676 -0.52,1.453 -0.52,2.329 V 7.249 H 0 Z"
               style="fill:#000000;fill-opacity:1;fill-rule:nonzero;stroke:none"
               id="path916" />
          </g>
          <g
             id="g918"
             transform="translate(184.4609,741.543)"
             style="fill:#000000">
            <path
               d="m 0,0 c -0.262,-0.569 -0.608,-1.066 -1.041,-1.492 -0.432,-0.427 -0.923,-0.782 -1.475,-1.066 -0.551,-0.285 -1.151,-0.498 -1.798,-0.64 -0.649,-0.142 -1.32,-0.213 -2.013,-0.213 -1.081,0 -2.061,0.167 -2.942,0.503 -0.882,0.335 -1.637,0.802 -2.269,1.399 -0.631,0.596 -1.116,1.299 -1.458,2.106 -0.341,0.807 -0.511,1.682 -0.511,2.626 0,1.035 0.193,1.964 0.579,2.789 0.386,0.824 0.91,1.521 1.569,2.09 0.659,0.567 1.424,1.002 2.294,1.304 0.87,0.301 1.782,0.451 2.738,0.451 1.455,0 2.729,-0.329 3.82,-0.988 1.091,-0.66 1.945,-1.558 2.558,-2.695 L -1.995,5.252 c -0.239,0.364 -0.501,0.694 -0.784,0.99 -0.285,0.296 -0.601,0.546 -0.947,0.751 -0.347,0.204 -0.734,0.36 -1.16,0.468 -0.427,0.108 -0.907,0.163 -1.441,0.163 -0.66,0 -1.282,-0.1 -1.868,-0.299 C -8.781,7.126 -9.292,6.836 -9.73,6.455 -10.167,6.074 -10.515,5.611 -10.77,5.065 -11.026,4.52 -11.154,3.9 -11.154,3.207 c 0,-0.672 0.128,-1.278 0.384,-1.817 0.255,-0.54 0.603,-1.001 1.04,-1.381 0.438,-0.382 0.949,-0.677 1.535,-0.887 0.586,-0.211 1.208,-0.316 1.868,-0.316 0.466,0 0.918,0.043 1.356,0.128 0.437,0.085 0.844,0.216 1.22,0.392 0.375,0.176 0.713,0.404 1.014,0.683 0.301,0.278 0.554,0.611 0.758,0.997 z"
               style="fill:#000000;fill-opacity:1;fill-rule:nonzero;stroke:none"
               id="path920" />
          </g>
        </g>
      </g>
      <g
         id="g922"
         transform="matrix(0.35277777,0,0,-0.35277777,178.78656,127.99162)"
         style="fill:#000000">
        <path
           d="M 0,0 5.663,-12.826 H 3.19 l -1.211,2.695 h -7.3 l -1.176,-2.695 H -8.988 L -3.342,0 Z M -1.654,-1.808 -4.298,-7.862 H 0.99 Z"
           style="fill:#000000;fill-opacity:1;fill-rule:nonzero;stroke:none"
           id="path924" />
      </g>
      <g
         id="g926"
         transform="matrix(0.35277777,0,0,-0.35277777,183.46136,127.99162)"
         style="fill:#000000">
        <path
           d="M 0,0 H 12.519 V -2.201 H 7.437 V -12.826 H 5.1 V -2.201 H 0 Z"
           style="fill:#000000;fill-opacity:1;fill-rule:nonzero;stroke:none"
           id="path928" />
      </g>
      <path
         d="m 191.62029,132.51617 h -0.88441 v -4.52473 h 0.88441 z"
         style="fill:#000000;fill-opacity:1;fill-rule:nonzero;stroke:none;stroke-width:0.352778"
         id="path930" />
      <g
         id="g932"
         transform="matrix(0.35277777,0,0,-0.35277777,107.78054,393.00904)"
         style="fill:#000000">
        <g
           id="g934"
           clip-path="url(#clipPath938)"
           style="fill:#000000">
          <g
             id="g940"
             transform="translate(246.0127,744.7661)"
             style="fill:#000000">
            <path
               d="M 0,0 C 0,0.978 0.187,1.874 0.562,2.686 0.938,3.5 1.45,4.198 2.098,4.784 c 0.648,0.585 1.407,1.04 2.277,1.364 0.87,0.325 1.799,0.486 2.789,0.486 0.988,0 1.915,-0.161 2.779,-0.486 0.865,-0.324 1.62,-0.779 2.269,-1.364 C 12.859,4.198 13.372,3.5 13.747,2.686 14.122,1.874 14.31,0.978 14.31,0 14.31,-0.978 14.122,-1.873 13.747,-2.686 13.372,-3.5 12.859,-4.198 12.212,-4.784 11.563,-5.37 10.808,-5.824 9.943,-6.148 9.079,-6.472 8.152,-6.634 7.164,-6.634 c -0.99,0 -1.919,0.162 -2.789,0.486 C 3.505,-5.824 2.746,-5.37 2.098,-4.784 1.45,-4.198 0.938,-3.5 0.562,-2.686 0.187,-1.873 0,-0.978 0,0 m 2.285,0 c 0,-0.647 0.128,-1.242 0.384,-1.782 0.256,-0.54 0.603,-1.009 1.04,-1.407 0.438,-0.398 0.953,-0.708 1.544,-0.93 0.591,-0.221 1.228,-0.332 1.911,-0.332 0.681,0 1.318,0.111 1.91,0.332 0.591,0.222 1.105,0.532 1.543,0.93 0.438,0.398 0.781,0.867 1.032,1.407 0.25,0.54 0.375,1.135 0.375,1.782 0,0.648 -0.125,1.242 -0.375,1.782 -0.251,0.54 -0.594,1.009 -1.032,1.407 C 10.179,3.587 9.665,3.897 9.074,4.119 8.482,4.341 7.845,4.452 7.164,4.452 6.481,4.452 5.844,4.341 5.253,4.119 4.662,3.897 4.147,3.587 3.709,3.189 3.272,2.791 2.925,2.322 2.669,1.782 2.413,1.242 2.285,0.648 2.285,0"
               style="fill:#000000;fill-opacity:1;fill-rule:nonzero;stroke:none"
               id="path942" />
          </g>
        </g>
      </g>
      <g
         id="g944"
         transform="matrix(0.35277777,0,0,-0.35277777,206.25877,131.0483)"
         style="fill:#000000">
        <path
           d="M 0,0 V 8.665 H 2.388 V -4.161 H 0.393 L -8.101,5.97 V -4.161 h -2.354 V 8.665 H -7.3 Z"
           style="fill:#000000;fill-opacity:1;fill-rule:nonzero;stroke:none"
           id="path946" />
      </g>
    </g>
    <g
       id="g29053"
       transform="translate(32.930422,-34.251426)">
      <path
         d="m 109.8972,121.96685 c 1.60549,-2.47227 3.63114,-4.6669 5.98699,-6.45196 3.67489,-2.68781 7.40869,-4.65948 11.2328,-3.80365 1.1691,0.26 3.05188,1.50107 2.83527,4.38609 -0.21872,2.10926 -0.97014,4.12997 -2.1851,5.8741 0,0 2.51036,-3.7278 0.83961,-5.99934 -1.74696,-2.36996 -6.6862,0.20603 -7.5124,0.76624 0,0 -3.42265,2.21756 -5.25992,5.22852 z"
         style="fill:url(#linearGradient1862);fill-opacity:1;fill-rule:nonzero;stroke:none;stroke-width:0.352778"
         id="path1751" />
      <path
         d="m 132.69772,123.87096 c -1.60549,2.47227 -3.63114,4.6669 -5.98699,6.45195 -3.67489,2.68782 -7.40869,4.65949 -11.2328,3.80365 -1.1691,-0.26 -3.05188,-1.50107 -2.83527,-4.38608 0.21872,-2.10926 0.97013,-4.12997 2.1851,-5.87411 0,0 -2.51037,3.72781 -0.83961,5.99934 1.74696,2.36996 6.6862,-0.20602 7.5124,-0.76623 0,0 3.42265,-2.21756 5.25992,-5.22852 z"
         style="fill:url(#linearGradient29047);fill-opacity:1;fill-rule:nonzero;stroke:none;stroke-width:0.352778"
         id="path29045" />
    </g>
  </g>
</svg>
